# xmcd CD database file
#
# Track frame offsets:
#	150
#	16094
#	33338
#	50075
#	66402
#	81598
#	103760
#	118814
#	134878
#	150209
#
# Disc length: 2280 seconds
#
# Revision: 0
# Processed by: cddbd v1.5.2PL0 Copyright (c) Steve Scherf et al.
# Submitted via: CDex 1.70beta2
#
DISCID=8b08e60a
DTITLE=Chad Brownlee, 1982- - Love Me Or Leave Me
DYEAR=2012
DGENRE=Country Can 2011-2020
TTITLE0=Chad Brownlee - Crash
TTITLE1=Chad Brownlee - Listen
TTITLE2=Chad Brownlee - Love Me or Leave Me
TTITLE3=Chad Brownlee - If It Was Up To Me
TTITLE4=Chad Brownlee - Smoke in the Rain
TTITLE5=Chad Brownlee - His Own Terms (Ballad of Eldon McClain)
TTITLE6=Chad Brownlee - Gimme the Love
TTITLE7=Chad Brownlee - Radio Up
TTITLE8=Chad Brownlee - Leave Here Dying Young
TTITLE9=Chad Brownlee - Wagon Wheel
EXTD=YEAR: 2012
EXTT0=
EXTT1=
EXTT2=
EXTT3=
EXTT4=
EXTT5=
EXTT6=
EXTT7=
EXTT8=
EXTT9=
PLAYORDER=
